<?xml version="1.0" encoding="utf-8"?>
<!-- Generator: Adobe Illustrator 24.1.0, SVG Export Plug-In . SVG Version: 6.00 Build 0)  -->
<svg version="1.1" id="Layer_1" xmlns="http://www.w3.org/2000/svg" xmlns:xlink="http://www.w3.org/1999/xlink" x="0px" y="0px"
	 viewBox="0 0 225 69" style="enable-background:new 0 0 225 69;" xml:space="preserve">
<style type="text/css">
	.st0{fill:#CD2027;}
	.st1{fill:none;stroke:#A7A8AA;stroke-width:0.3384;stroke-miterlimit:10;}
	.st2{fill:#53575A;}
</style>
<g>
	<g>
		<polygon class="st0" points="14.3,22.5 14.3,31.5 5.8,31.5 5.8,22.5 0.9,22.5 0.9,45.1 5.8,45.1 5.8,35.2 14.4,35.2 14.4,45.1 
			19.3,45.1 19.3,22.5 		"/>
		<g>
			<path class="st0" d="M25.6,35.5c0.1-1.8,0.9-3.5,3-3.5c2.7,0,2.8,2.8,2.8,3.5H25.6z M36,38.4c0.1-1.3,0.1-3.6-0.9-5.8
				c-1.4-2.9-4.1-3.8-6.4-3.8c-1.7,0-3.2,0.5-4.5,1.3C21.6,32,21,35,21,37.6c0,2.5,0.6,4.7,2,6.2c1.7,1.7,4.2,2,5.6,2
				c2.3,0,4.4-0.6,5.5-1.8c1.3-1.3,1.4-2.7,1.5-3.4h-4.2c-0.4,1.8-1.6,2.2-2.8,2.2c-3.2,0-3.2-3.2-3.2-4.2
				C25.4,38.4,36,38.4,36,38.4z"/>
			<path class="st0" d="M47,37.7c0,1.7-0.1,2.9-0.9,3.9c-0.4,0.5-1.1,0.9-2,0.9c-1.5,0-2.2-1.2-2.2-2.2C41.9,38.4,44,37.4,47,37.7
				 M51.8,45.1c-0.3-1.3-0.4-2.7-0.4-4v-6.4c0-0.7,0-2.6-1.1-3.9c-1.6-1.8-4.3-2-5.6-2c-1.5,0-3.3,0.2-4.8,1.3
				c-1.7,1.2-1.8,2.9-1.8,3.7h4.5c0-0.4,0-0.9,0.3-1.4c0.4-0.6,1.1-0.9,1.8-0.9c0.4,0,1.7,0.2,2.1,1.3c0.2,0.6,0.2,1.1,0.2,2.1
				c-1.5,0-4.3,0-6.3,0.9c-2.9,1.3-3.3,3.7-3.3,4.9s0.4,2.5,1.4,3.5c0.6,0.6,1.7,1.2,3.9,1.2c0.9,0,3,0,4.7-2.5c0,0.5,0,1.2,0.2,2.2
				H51.8z"/>
			<path class="st0" d="M53.6,45.1h4.6v-7.8c0-2,0.3-4.4,5-4v-4.2c-3.8-0.2-4.8,1.7-5.4,3.1l-0.1-3h-4.3c0.1,0.9,0.2,3.2,0.2,4V45.1
				z"/>
			<path class="st0" d="M72.8,41.9c-0.5,0-0.8,0.1-1.5,0.1c-2.1,0-2.1-0.9-2.1-2.3v-7.1H73v-3.1h-3.8v-4.8l-4.6,1.7v3.1v3.1v8.7
				c0,1.3,0,4.3,4.7,4.3c0.8,0,2.1-0.1,3.6-0.5L72.8,41.9L72.8,41.9z"/>
		</g>
		<rect x="74.5" y="22.5" class="st0" width="4.6" height="22.6"/>
		<g>
			<path class="st0" d="M90.2,37.7c0,1.7-0.1,2.9-0.9,3.9c-0.4,0.5-1.1,0.9-2,0.9c-1.5,0-2.2-1.2-2.2-2.2
				C85.2,38.4,87.3,37.4,90.2,37.7 M95,45.1c-0.3-1.3-0.4-2.7-0.4-4v-6.4c0-0.7,0-2.6-1.1-3.9c-1.6-1.8-4.3-2-5.6-2
				c-1.5,0-3.3,0.2-4.8,1.3c-1.7,1.2-1.8,2.9-1.8,3.7h4.5c0-0.4,0-0.9,0.3-1.4c0.4-0.6,1.1-0.9,1.8-0.9c0.4,0,1.7,0.2,2.1,1.3
				c0.2,0.6,0.2,1.1,0.2,2.1c-1.5,0-4.3,0-6.3,0.9c-2.9,1.3-3.3,3.7-3.3,4.9s0.4,2.5,1.4,3.5c0.6,0.6,1.7,1.2,3.9,1.2
				c0.9,0,3,0,4.7-2.5c0,0.5,0,1.2,0.2,2.2H95z"/>
			<path class="st0" d="M96.6,45.1h4.7v-9.3c0-1.2,0.3-2,0.6-2.4c0.5-0.8,1.4-1.2,2.4-1.2c1.2,0,1.9,0.7,2.2,1.3
				c0.2,0.5,0.2,1.1,0.2,1.7V45h4.7v-8.5c0-2.9-0.1-3.8-0.4-4.7c-0.4-1.1-1.7-3-4.8-3c-3.4,0-4.7,2-5.1,2.8l-0.1-2.4h-4.4
				c0.1,1.1,0.1,2.8,0.1,2.9L96.6,45.1L96.6,45.1z"/>
			<path class="st0" d="M117.8,37.5c0-1.6,0.3-5.3,3.4-5.3c2.1,0,3.4,1.7,3.4,4.8c0,0.8-0.1,2.4-0.8,3.7c-0.5,1-1.6,1.8-2.9,1.8
				C118.7,42.4,117.8,40.1,117.8,37.5 M124.5,31.3c-0.4-0.6-1.6-2.2-4.4-2.2c-4.1,0-7,3.3-7,8.5c0,4.9,2.5,7.9,6.7,7.9
				c0.7,0,1.9-0.1,3.1-0.8c1-0.6,1.3-1.2,1.6-1.8l0.1,2.3h4.7c-0.1-0.6-0.1-1.6-0.1-2.6V22.5h-4.7L124.5,31.3L124.5,31.3z"/>
		</g>
	</g>
	<line class="st1" x1="144" y1="1" x2="144" y2="68"/>
	<g>
		<path class="st2" d="M160.8,45.2h-2.1V22.3h7.5c2,0,3.6,0.1,5.4,1.2c1.6,1,2.4,2.6,2.4,4.8c0,2.5-1.8,4.3-4.4,4.9v0.1
			c2.9,0.5,3.6,2.4,3.8,5.1c0.4,3.7,0.3,5.4,1.2,6.8h-2.4c-0.5-1.5-0.7-3.2-0.8-4.8c-0.5-5.2-0.8-6.2-5-6.2h-5.7L160.8,45.2
			L160.8,45.2z M165.2,32.4c2.9,0,6.5-0.2,6.5-4.1c0-4.4-4.1-4.1-6.3-4.1h-4.6v8.2C160.8,32.4,165.2,32.4,165.2,32.4z"/>
		<path class="st2" d="M177.8,37.7c0.1,3.4,1.6,6.3,5.5,6.3c2.3,0,4.1-1.6,4.6-3.8h2c-1,3.8-3.4,5.6-7.2,5.6c-4.8,0-7-4.1-7-8.4
			s2.4-8.5,7.1-8.5c5.3,0,7.3,3.9,7.3,8.9L177.8,37.7L177.8,37.7z M188,35.9c-0.2-3.1-1.9-5.4-5.2-5.4c-3.1,0-4.8,2.6-5,5.4H188z"/>
		<path class="st2" d="M193.8,31h-3.2v-1.8h3.2v-3.4l1.9-0.8v4.2h3.6V31h-3.6v10.7c0,1.5,0.7,2.3,2.2,2.3c0.6,0,1.1,0,1.6-0.2v1.7
			c-0.6,0.2-1.3,0.3-1.9,0.3c-4,0-3.8-2.6-3.8-4.7V31z"/>
		<path class="st2" d="M211.4,34c-0.2-2.6-1.5-3.4-3.8-3.4c-2,0-3.6,0.6-3.9,2.8h-2c0.5-3.3,2.9-4.5,6-4.5c3.5,0,5.7,1.6,5.7,5.3
			v7.6c0,1.2,0.1,2.5,0.2,3.6h-2l-0.1-2.3h-0.1l-0.1,0.2c-0.7,1.3-2.8,2.6-5,2.6c-3,0-5.3-1.8-5.3-4.9c0-2.2,1.3-3.8,3.2-4.6
			c2.1-0.9,4.9-0.6,7.2-0.7L211.4,34L211.4,34z M206.6,43.9c4.2,0,5-3.4,4.8-6.8c-2.7,0.1-8.4-0.4-8.4,3.6
			C203,42.9,204.7,43.9,206.6,43.9z"/>
		<path class="st2" d="M218.4,24.9h-2.2v-2.4h2.2V24.9z M218.3,29.5v15.9h-1.9V29.5H218.3z"/>
		<path class="st2" d="M224.1,45.4h-1.9V22.5h1.9V45.4z"/>
	</g>
</g>
</svg>
