<?xml version="1.0" encoding="utf-8"?>
<!-- Generator: Adobe Illustrator 24.1.0, SVG Export Plug-In . SVG Version: 6.00 Build 0)  -->
<svg version="1.1" xmlns="http://www.w3.org/2000/svg" xmlns:xlink="http://www.w3.org/1999/xlink" x="0px" y="0px"
	 viewBox="0 0 135 135" style="enable-background:new 0 0 135 135;" xml:space="preserve">
<style type="text/css">
	.st0{display:none;}
	.st1{display:inline;fill:#231F20;}
	.st2{font-family:'MonoSocialIconsFont';}
	.st3{font-size:163.8168px;}
	.st4{fill:#FFFFFF;}
</style>
<g id="Layer_1" class="st0">
	<text transform="matrix(1 0 0 1 -0.3301 115.2531)" class="st1 st2 st3">circletwitter</text>
</g>
<g id="Layer_1_copy">
	<g>
		<path class="st4" d="M67.6,0.5c9.3,0,18,1.8,26.1,5.3c8.1,3.5,15.2,8.3,21.2,14.3c6,6,10.8,13.1,14.3,21.2
			c3.5,8.1,5.3,16.8,5.3,26.1c0,9.3-1.8,18-5.3,26.1c-3.5,8.1-8.3,15.2-14.3,21.3c-6,6.1-13.1,10.9-21.2,14.4
			c-8.1,3.5-16.8,5.3-26.1,5.3c-9.3,0-18-1.8-26.1-5.3c-8.1-3.5-15.2-8.3-21.3-14.4S9.3,101.6,5.8,93.5c-3.5-8.1-5.3-16.8-5.3-26.1
			c0-9.3,1.8-18,5.3-26.1c3.5-8.1,8.3-15.2,14.4-21.2c6.1-6,13.2-10.8,21.3-14.3C49.6,2.3,58.3,0.5,67.6,0.5z M63.3,88.4
			c-2.1,0-4.1-0.9-5.8-2.6c-1.7-1.7-2.6-3.6-2.6-5.8V67.4h33.4c2.1,0,4.1-0.9,5.8-2.6c1.8-1.7,2.6-3.6,2.6-5.8
			c0-2.1-0.9-4.1-2.6-5.8c-1.8-1.7-3.7-2.6-5.8-2.6H54.9V38.1c0-2.1-0.9-4.1-2.6-5.8c-1.7-1.7-3.6-2.6-5.8-2.6
			c-2.1,0-4.1,0.9-5.8,2.6c-1.7,1.7-2.6,3.6-2.6,5.8v41.9c0,4.2,0.7,7.8,2.2,11c1.4,3.1,3.3,5.8,5.7,7.8c2.3,2.1,5,3.7,8,4.7
			c3,1.1,6,1.6,9.1,1.6h25.1c2.1,0,4.1-0.9,5.8-2.6s2.6-3.7,2.6-5.8c0-2.1-0.9-4.1-2.6-5.8c-1.8-1.7-3.7-2.6-5.8-2.6H63.3z"/>
	</g>
</g>
</svg>
