<?xml version="1.0" encoding="utf-8"?>
<!-- Generator: Adobe Illustrator 24.1.0, SVG Export Plug-In . SVG Version: 6.00 Build 0)  -->
<svg version="1.1" xmlns="http://www.w3.org/2000/svg" xmlns:xlink="http://www.w3.org/1999/xlink" x="0px" y="0px"
	 viewBox="0 0 135 135" style="enable-background:new 0 0 135 135;" xml:space="preserve">
<style type="text/css">
	.st0{display:none;}
	.st1{display:inline;fill:#231F20;}
	.st2{font-family:'MonoSocialIconsFont';}
	.st3{font-size:163.8168px;}
	.st4{fill:#FFFFFF;}
</style>
<g id="Layer_1" class="st0">
	<text transform="matrix(1 0 0 1 -0.4102 115.2532)" class="st1 st2 st3">circlefacebook</text>
</g>
<g id="Layer_1_copy">
	<g>
		<path class="st4" d="M67.4,0.4c9.3,0,18,1.8,26.2,5.3c8.2,3.5,15.3,8.3,21.4,14.4s10.9,13.2,14.4,21.3c3.5,8.1,5.3,16.8,5.3,26.1
			c0,9.3-1.8,18-5.3,26.2c-3.5,8.2-8.3,15.3-14.4,21.4s-13.2,10.9-21.4,14.4c-8.2,3.5-16.9,5.3-26.2,5.3c-9.3,0-18-1.8-26.1-5.3
			c-8.1-3.5-15.2-8.3-21.3-14.4S9.2,101.7,5.7,93.6c-3.5-8.2-5.3-16.9-5.3-26.2c0-9.3,1.8-18,5.3-26.1c3.5-8.1,8.3-15.2,14.4-21.3
			S33.2,9.2,41.3,5.7C49.4,2.1,58.1,0.4,67.4,0.4z M92.7,29.7H78.5c-2.8,0-5.3,0.5-7.7,1.4c-2.3,1-4.4,2.2-6.2,3.8s-3.1,3.4-4.1,5.4
			c-1,2-1.4,4.1-1.4,6.1v8.5H46.5v16.6h12.6v33.6h16.8V71.6h12.5V54.9H75.9v-4.3c0-1.3,0.5-2.3,1.5-3c1-0.7,1.9-1.1,2.6-1.1h12.6
			V29.7z"/>
	</g>
</g>
</svg>
