<?xml version="1.0" encoding="utf-8"?>
<!-- Generator: Adobe Illustrator 24.1.0, SVG Export Plug-In . SVG Version: 6.00 Build 0)  -->
<svg version="1.1" xmlns="http://www.w3.org/2000/svg" xmlns:xlink="http://www.w3.org/1999/xlink" x="0px" y="0px"
	 viewBox="0 0 135 135" style="enable-background:new 0 0 135 135;" xml:space="preserve">
<style type="text/css">
	.st0{display:none;}
	.st1{display:inline;fill:#231F20;}
	.st2{font-family:'MonoSocialIconsFont';}
	.st3{font-size:163.8168px;}
	.st4{fill:#FFFFFF;}
</style>
<g id="Layer_1" class="st0">
	<text transform="matrix(1 0 0 1 -0.4102 115.0933)" class="st1 st2 st3">circlelinkedin</text>
</g>
<g id="Layer_1_copy">
	<g>
		<path class="st4" d="M67.4,0.5c9.3,0,18,1.8,26.1,5.3c8.1,3.5,15.2,8.3,21.3,14.3c6.1,6,10.9,13.1,14.4,21.2
			c3.5,8.1,5.3,16.8,5.3,26.1s-1.8,18-5.3,26.1c-3.5,8.1-8.3,15.2-14.4,21.3s-13.2,10.9-21.3,14.4c-8.1,3.5-16.8,5.3-26.1,5.3
			s-18-1.8-26.1-5.3c-8.1-3.5-15.2-8.3-21.2-14.4c-6-6.1-10.8-13.2-14.3-21.3c-3.5-8.1-5.3-16.8-5.3-26.1s1.8-18,5.3-26.1
			c3.5-8.1,8.3-15.2,14.3-21.2c6-6,13.1-10.8,21.2-14.3C49.4,2.3,58.1,0.5,67.4,0.5z M38.1,46.5c2.3,0,4.3-0.8,6-2.4
			c1.7-1.6,2.5-3.6,2.5-5.9c0-2.3-0.8-4.3-2.5-5.9c-1.7-1.6-3.7-2.4-6-2.4c-2.3,0-4.3,0.8-5.9,2.4c-1.6,1.6-2.4,3.6-2.4,5.9
			c0,2.3,0.8,4.3,2.4,5.9C33.8,45.7,35.8,46.5,38.1,46.5z M46.6,50.8H29.8v54.4h16.8V50.8z M105.2,73.7c0-3.8-1.1-7.6-3.2-11.3
			c-2.1-3.7-4.9-6.5-8.3-8.4c-3.1-1.7-6.7-2.6-10.8-2.7c-4.1-0.1-7.9,0.6-11.3,2.1v-2.6H54.9v54.4h16.6V71.9l7-3.4
			c0.9-0.4,2-0.6,3.4-0.6c1.4,0,2.6,0.3,3.4,0.8c0.6,0.3,1.3,1,1.9,2.1c0.6,1.1,1,2,1,2.9v31.5h16.8V73.7z"/>
	</g>
</g>
</svg>
