<?xml version="1.0" encoding="UTF-8"?> <!-- Generator: Adobe Illustrator 21.0.0, SVG Export Plug-In . SVG Version: 6.00 Build 0) --> <svg xmlns="http://www.w3.org/2000/svg" xmlns:xlink="http://www.w3.org/1999/xlink" id="Layer_1" x="0px" y="0px" viewBox="0 0 566 489.7" style="enable-background:new 0 0 566 489.7;" xml:space="preserve"> <style type="text/css"> .st0{fill:#2D41A7;} .st1{fill:url(#SVGID_1_);} .st2{fill:url(#SVGID_2_);} .st3{fill:url(#SVGID_3_);} .st4{fill:#4D5CA6;} .st5{fill:#525FC8;} .st6{fill:url(#SVGID_4_);} .st7{fill:#FDFBFB;} .st8{fill:#0A2FBB;} .st9{fill:url(#SVGID_5_);} .st10{fill:url(#SVGID_6_);} .st11{fill:#2D3ECB;} .st12{fill:#4453C5;} .st13{fill:url(#SVGID_7_);} .moving-line-1 { animation: moving 10s ease-in-out infinite; } .moving-line-2 { animation: moving 12s ease-in-out infinite; } .moving-line-3 { animation: moving 8s ease-in-out infinite; } /* .security-layer { animation: security 30s ease-in-out infinite; } */ .duplicate3 { animation: moving2 3s ease-in-out infinite; animation-delay: 2s; } .duplicate2 { animation: moving2 3s ease-in-out infinite; } .duplicate { animation: moving2 3s ease-in-out infinite; animation-delay: 1s; } .freedom-layer { animation: moving3 10s ease-in-out infinite; } .cube { animation: cube 4s ease-in-out infinite; opacity: 0; } @keyframes cube { 0% { transform: translate3d(0, 0, 0); opacity: 1; } 80% { transform: translate3d(22px, -12px, 0); opacity: 0; } 81% { transform: translate3d(0, 0, 0); opacity: 0; } 100% { transform: translate3d(0, 0, 0); opacity: 1; } } @keyframes security { 0% { transform: translateY(0) } 25% { transform: translateY(-40px); } 75% { transform: translateY(40px) } 100% { transform: translateY(0) } } @keyframes moving { 0% { transform: translate3d(0, 0, 0) } 50% { transform: translate3d(32px, -8px, -0px); } 100% { transform: translate3d(0, 0, 0) } } @keyframes moving2 { 0% { transform: translate3d(0, 0, 0); opacity: 1; } 100% { transform: translate3d(22px, -15px, -0px); opacity: 0; } } @keyframes moving3 { 0% { transform: translate3d(0, 0, 0); /* opacity: 1; */ } 50% { transform: translate3d(8px, 10px, 0px); /* opacity: 0.3; */ } 100% { transform: translate3d(0, 0, 0); /* opacity: 1; */ } } </style> <title>Artboard 1</title> <path class="st0" d="M371.5,252.7c-2.1,0-4.2-0.6-6.1-1.7l-60.5-34.9c-3.8-2.1-6.2-6.2-6.1-10.6v-69.8c-0.1-4.4,2.3-8.4,6.1-10.6 l60.5-34.9c3.8-2.2,8.4-2.2,12.2,0l60.5,34.9c3.8,2.1,6.2,6.2,6.1,10.6v69.8c0.1,4.4-2.3,8.4-6.1,10.6L377.6,251 C375.7,252.1,373.6,252.7,371.5,252.7z M371.5,90.8c-1.8,0-3.5,0.5-5,1.4L306,127.1c-3.1,1.7-5,5.1-5,8.6v69.8 c-0.1,3.6,1.9,6.9,5,8.6l60.5,34.9c3.1,1.8,6.9,1.8,10,0l60.5-34.9c3.1-1.7,5-5.1,5-8.6v-69.8c0.1-3.6-1.9-6.9-5-8.6l-60.5-34.9 C375,91.3,373.3,90.8,371.5,90.8L371.5,90.8z"></path> <linearGradient id="SVGID_1_" gradientUnits="userSpaceOnUse" x1="359.9993" y1="132.7181" x2="399.8593" y2="132.7181" gradientTransform="matrix(1 0 0 -1 150.5 464)"> <stop offset="0" style="stop-color:#2D3ECB"></stop> <stop offset="0.75" style="stop-color:#2D00B1"></stop> <stop offset="1" style="stop-color:#00009C"></stop> </linearGradient> <path class="st1" d="M531.9,309.2l8.4,4.9l8.4,4.9c1,0.5,1.6,1.6,1.5,2.7V341c0,1.1-0.6,2.1-1.5,2.7l-8.4,4.9l-8.4,4.9 c-0.9,0.6-2.1,0.6-3.1,0l-8.4-4.9l-8.4-4.9c-1-0.5-1.5-1.6-1.5-2.7v-19.4c0-1.1,0.6-2.1,1.5-2.7l8.4-4.9l8.4-4.9 C529.8,308.6,531,308.6,531.9,309.2z"></path> <linearGradient id="SVGID_2_" gradientUnits="userSpaceOnUse" x1="281.0366" y1="293.3906" x2="306.2966" y2="293.3906" gradientTransform="matrix(1 0 0 -1 150.5 464)"> <stop offset="0" style="stop-color:#2D3ECB"></stop> <stop offset="0.75" style="stop-color:#2D00B1"></stop> <stop offset="1" style="stop-color:#00009C"></stop> </linearGradient> <path class="st2" d="M445.1,156.6l5.3,3.1l5.3,3.1c0.6,0.3,1,1,1,1.7v12.3c0,0.7-0.4,1.4-1,1.7l-5.3,3.1l-5.3,3.1 c-0.6,0.4-1.4,0.4-2,0l-5.3-3.1l-5.3-3.1c-0.6-0.3-1-1-1-1.7v-12.3c0-0.7,0.4-1.4,1-1.7l5.3-3.1l5.3-3.1 C443.8,156.2,444.5,156.2,445.1,156.6z"></path> <linearGradient id="SVGID_3_" gradientUnits="userSpaceOnUse" x1="338.0743" y1="419.8215" x2="408.8857" y2="419.8215" gradientTransform="matrix(1 0 0 -1 150.5 464)"> <stop offset="0" style="stop-color:#2D3ECB"></stop> <stop offset="0.75" style="stop-color:#2D00B1"></stop> <stop offset="1" style="stop-color:#00009C"></stop> </linearGradient> <path class="st3" d="M526.7,4.9l15,8.6l15,8.6c1.7,1,2.8,2.8,2.7,4.7v34.6c0,2-1,3.8-2.7,4.7l-15,8.6l-15,8.6c-1.7,1-3.8,1-5.5,0 l-15-8.6l-15-8.6c-1.7-1-2.8-2.8-2.7-4.7V26.9c0-2,1-3.8,2.7-4.7l15-8.6l15-8.7C522.9,3.9,525,3.9,526.7,4.9z"></path> <path class="st4 moving-line-1" d="M328.5,143.6c-0.5,0-0.9-0.4-0.9-0.9c0-0.3,0.2-0.6,0.4-0.8l146.6-84.7c0.5-0.2,1,0,1.2,0.4 c0.2,0.4,0.1,0.9-0.3,1.2l-146.7,84.7C328.8,143.5,328.6,143.6,328.5,143.6z"></path> <path class="st5 moving-line-1" d="M438.5,384.7c-0.5,0-0.9-0.4-0.9-0.9c0-0.3,0.2-0.6,0.4-0.8l91.1-52.6c0.5-0.2,1,0,1.2,0.4 c0.2,0.4,0.1,0.9-0.3,1.2L439,384.6C438.8,384.7,438.7,384.7,438.5,384.7z"></path> <path class="st5 moving-line-2" d="M357.5,381.5c-0.5,0-0.9-0.4-0.9-0.9c0-0.3,0.2-0.6,0.4-0.8l7.5-4.3c0.4-0.3,1-0.1,1.3,0.3 c0.3,0.4,0.1,1-0.3,1.3l0,0l-7.5,4.3C357.9,381.4,357.7,381.5,357.5,381.5z"></path> <path class="st5 moving-line-1" d="M339.4,303.6c-0.5,0-0.9-0.4-0.9-0.9c0-0.3,0.2-0.6,0.4-0.8l7.5-4.3c0.4-0.3,1-0.2,1.3,0.3 c0.3,0.4,0.2,1-0.3,1.3c0,0-0.1,0-0.1,0.1l-7.5,4.3C339.7,303.5,339.6,303.6,339.4,303.6z"></path> <path class="st4 moving-line-2" d="M450.5,127.5c-0.5,0-0.9-0.4-0.9-0.9c0-0.3,0.2-0.6,0.4-0.8l30.1-17.4c0.5-0.2,1,0,1.2,0.4 c0.2,0.4,0.1,0.9-0.3,1.2L451,127.4C450.8,127.4,450.7,127.5,450.5,127.5z"></path> <path class="st5 moving-line-3" d="M432.9,291.9c-0.5,0-0.9-0.4-0.9-0.9c0-0.3,0.2-0.6,0.4-0.8l32.7-18.9c0.4-0.3,1-0.2,1.3,0.3 c0.3,0.4,0.2,1-0.3,1.3c0,0-0.1,0-0.1,0.1l-32.7,18.9C433.2,291.8,433.1,291.9,432.9,291.9z"></path> <path class="st5" d="M457.9,234.7l1.4,0.8l1.4,0.8c0.2,0.1,0.3,0.3,0.3,0.4v3.2c0,0.2-0.1,0.3-0.3,0.4l-1.4,0.8l-1.4,0.8 c-0.2,0.1-0.4,0.1-0.5,0l-1.4-0.8l-1.4-0.8c-0.2-0.1-0.3-0.3-0.3-0.4v-3.2c0-0.2,0.1-0.3,0.3-0.4l1.4-0.8l1.4-0.8 C457.6,234.6,457.8,234.6,457.9,234.7z"></path> <linearGradient id="SVGID_4_" gradientUnits="userSpaceOnUse" x1="381.9798" y1="253.3615" x2="388.5502" y2="253.3615" gradientTransform="matrix(1 0 0 -1 150.5 464)"> <stop offset="0" style="stop-color:#2D3ECB"></stop> <stop offset="0.75" style="stop-color:#2D00B1"></stop> <stop offset="1" style="stop-color:#00009C"></stop> </linearGradient> <path class="st6" d="M536,207l1.4,0.8l1.4,0.8c0.2,0.1,0.3,0.3,0.3,0.4v3.2c0,0.2-0.1,0.4-0.3,0.4l-1.4,0.8l-1.4,0.8 c-0.2,0.1-0.4,0.1-0.5,0l-1.4-0.8l-1.4-0.8c-0.2-0.1-0.3-0.3-0.3-0.4V209c0-0.2,0.1-0.3,0.3-0.4l1.4-0.8l1.4-0.8 C535.7,206.9,535.9,206.9,536,207z"></path> <path class="st5" d="M454.6,381.7l0.7,0.4l0.7,0.4c0.1,0,0.1,0.1,0.1,0.2v1.6c0,0.1,0,0.2-0.1,0.2l-0.7,0.4l-0.7,0.4 c-0.1,0-0.2,0-0.3,0l-0.7-0.4l-0.7-0.4c-0.1,0-0.1-0.1-0.1-0.2v-1.6c0-0.1,0-0.2,0.1-0.2l0.7-0.4l0.7-0.4 C454.5,381.7,454.6,381.7,454.6,381.7z"></path> <path class="st5" d="M405.3,168.8l0.7,0.4l0.7,0.4c0.1,0,0.1,0.1,0.1,0.2v1.6c0,0.1,0,0.2-0.1,0.2L406,172l-0.7,0.4 c-0.1,0-0.2,0-0.3,0l-0.7-0.4l-0.7-0.4c-0.1,0-0.1-0.1-0.1-0.2v-1.6c0-0.1,0-0.2,0.1-0.2l0.7-0.4l0.7-0.4 C405.1,168.7,405.2,168.7,405.3,168.8z"></path> <path class="st5" d="M399.7,225.7l0.9,0.5l0.9,0.5c0.1,0.1,0.2,0.2,0.2,0.3v2.1c0,0.1-0.1,0.2-0.2,0.3l-0.9,0.5l-0.9,0.5 c-0.1,0.1-0.2,0.1-0.3,0l-0.9-0.5l-0.9-0.5c-0.1-0.1-0.2-0.2-0.2-0.3v-2.1c0-0.1,0.1-0.2,0.2-0.3l0.9-0.5l0.9-0.5 C399.5,225.7,399.6,225.7,399.7,225.7z"></path> <path class="st5" d="M290.5,91l0.7,0.4l0.7,0.4c0.1,0,0.1,0.1,0.1,0.2v1.6c0,0.1,0,0.2-0.1,0.2l-0.7,0.4l-0.7,0.4 c-0.1,0-0.2,0-0.3,0l-0.7-0.4l-0.7-0.4c-0.1,0-0.1-0.1-0.1-0.2V92c0-0.1,0-0.2,0.1-0.2l0.7-0.4l0.7-0.4C290.3,91,290.4,91,290.5,91z "></path> <path class="st5" d="M170.7,72.7l0.9,0.5l0.9,0.5c0.1,0.1,0.2,0.2,0.2,0.3v2.1c0,0.1-0.1,0.2-0.2,0.3l-0.9,0.5l-0.9,0.5 c-0.1,0.1-0.2,0.1-0.3,0l-0.9-0.5l-0.9-0.5c-0.1-0.1-0.2-0.2-0.2-0.3V74c0-0.1,0.1-0.2,0.2-0.3l0.9-0.5l0.9-0.5 C170.5,72.6,170.6,72.6,170.7,72.7z"></path> <polygon class="st8 duplicate" points="219.1,131.6 334.8,199.3 331.1,361.6 220.8,301.3 "></polygon> <polygon class="st8 duplicate2" points="219.1,131.6 334.8,199.3 331.1,361.6 220.8,301.3 "></polygon> <polygon class="st8 duplicate3" points="219.1,131.6 334.8,199.3 331.1,361.6 220.8,301.3 "></polygon> <polygon class="st8" points="219.1,131.6 334.8,199.3 331.1,361.6 220.8,301.3 "></polygon> <linearGradient id="SVGID_5_" gradientUnits="userSpaceOnUse" x1="96.14" y1="194.6913" x2="109.27" y2="194.6913" gradientTransform="matrix(1 0 0 -1 150.5 464)"> <stop offset="0" style="stop-color:#2D3ECB"></stop> <stop offset="0.75" style="stop-color:#2D00B1"></stop> <stop offset="1" style="stop-color:#00009C"></stop> </linearGradient> <path class="st9" d="M253.7,262l2.8,1.6l2.8,1.6c0.3,0.2,0.5,0.5,0.5,0.9v6.4c0,0.4-0.2,0.7-0.5,0.9l-2.8,1.6l-2.8,1.6 c-0.3,0.2-0.7,0.2-1,0L250,275l-2.8-1.6c-0.3-0.2-0.5-0.5-0.5-0.9v-6.4c0-0.4,0.2-0.7,0.5-0.9l2.8-1.6l2.8-1.6 C253,261.8,253.4,261.8,253.7,262z"></path> <linearGradient id="SVGID_6_" gradientUnits="userSpaceOnUse" x1="96.14" y1="194.6913" x2="109.27" y2="194.6913" gradientTransform="matrix(1 0 0 -1 150.5 464)"> <stop offset="0" style="stop-color:#2D3ECB"></stop> <stop offset="0.75" style="stop-color:#2D00B1"></stop> <stop offset="1" style="stop-color:#00009C"></stop> </linearGradient> <path class="st10 cube" d="M253.7,262l2.8,1.6l2.8,1.6c0.3,0.2,0.5,0.5,0.5,0.9v6.4c0,0.4-0.2,0.7-0.5,0.9l-2.8,1.6l-2.8,1.6 c-0.3,0.2-0.7,0.2-1,0L250,275l-2.8-1.6c-0.3-0.2-0.5-0.5-0.5-0.9v-6.4c0-0.4,0.2-0.7,0.5-0.9l2.8-1.6l2.8-1.6 C253,261.8,253.4,261.8,253.7,262z"></path> <path class="st10 " d="M253.7,262l2.8,1.6l2.8,1.6c0.3,0.2,0.5,0.5,0.5,0.9v6.4c0,0.4-0.2,0.7-0.5,0.9l-2.8,1.6l-2.8,1.6 c-0.3,0.2-0.7,0.2-1,0L250,275l-2.8-1.6c-0.3-0.2-0.5-0.5-0.5-0.9v-6.4c0-0.4,0.2-0.7,0.5-0.9l2.8-1.6l2.8-1.6 C253,261.8,253.4,261.8,253.7,262z"></path> <path class="st11" d="M117,330.5l13.2,7.6l13.2,7.6c1.5,0.8,2.4,2.5,2.4,4.2v30.5c0,1.7-0.9,3.3-2.4,4.2l-13.2,7.6l-13.2,7.6 c-1.5,0.9-3.4,0.9-4.8,0L99,392.3l-13.2-7.6c-1.5-0.9-2.4-2.5-2.4-4.2V350c0-1.7,0.9-3.3,2.4-4.2l13.2-7.6l13.2-7.6 C113.7,329.6,115.6,329.6,117,330.5z"></path> <path class="st12" d="M6.6,466.7c-0.5,0-0.9-0.4-0.9-0.9c0-0.3,0.2-0.6,0.4-0.8L68,429.3c0.4-0.3,1-0.2,1.3,0.3 c0.3,0.4,0.2,1-0.3,1.3c0,0-0.1,0-0.1,0.1L7.1,466.6C7,466.7,6.8,466.7,6.6,466.7z"></path> <linearGradient id="SVGID_7_" gradientUnits="userSpaceOnUse" x1="-28.9086" y1="73.6308" x2="-0.9482" y2="73.6308" gradientTransform="matrix(1 0 0 -1 150.5 464)"> <stop offset="0" style="stop-color:#2D3ECB"></stop> <stop offset="0.75" style="stop-color:#2D00B1"></stop> <stop offset="1" style="stop-color:#00009C"></stop> </linearGradient> <path class="st13" d="M136.7,374.9l5.9,3.4l5.9,3.4c0.7,0.4,1.1,1.1,1.1,1.9v13.6c0,0.8-0.4,1.5-1.1,1.9l-5.9,3.4l-5.9,3.4 c-0.7,0.4-1.5,0.4-2.2,0l-5.9-3.4l-5.9-3.4c-0.7-0.4-1.1-1.1-1.1-1.9v-13.6c0-0.8,0.4-1.5,1.1-1.9l5.9-3.4l5.9-3.4 C135.2,374.5,136,374.5,136.7,374.9z"></path> <path class="st12" d="M218,327.8c-0.9,0-1.8-0.2-2.5-0.7L192.8,314c-1.6-0.9-2.5-2.6-2.5-4.4v-26.1c0-1.8,1-3.5,2.5-4.4l22.6-13.1 c1.6-0.9,3.5-0.9,5.1,0l22.6,13.1c1.6,0.9,2.5,2.6,2.5,4.4v26.1c0,1.8-1,3.5-2.5,4.4l-22.6,13.1C219.7,327.6,218.9,327.8,218,327.8z M218,267.2c-0.6,0-1.1,0.2-1.6,0.5l-22.6,13.1c-1,0.6-1.6,1.6-1.6,2.8v26.1c0,1.2,0.6,2.2,1.6,2.8l22.6,13.1c1,0.6,2.2,0.6,3.2,0 l22.6-13.1c1-0.6,1.6-1.6,1.6-2.8v-26.2c0-1.2-0.6-2.2-1.6-2.8l-22.6-13.1C219.1,267.4,218.6,267.2,218,267.2z"></path> <path class="st12" d="M122.5,354.1c-0.5,0-0.9-0.4-0.9-0.9c0-0.3,0.2-0.6,0.4-0.8l113.7-65.7c0.5-0.2,1,0,1.2,0.4 c0.2,0.4,0.1,0.9-0.3,1.2L123,354C122.8,354.1,122.7,354.1,122.5,354.1z"></path> <path class="st12" d="M52.3,484.2c-0.5,0-0.9-0.4-0.9-0.9c0-0.3,0.2-0.6,0.4-0.8l15-8.6c0.5-0.2,1,0,1.2,0.4 c0.2,0.4,0.1,0.9-0.3,1.2l-15,8.6C52.7,484.2,52.5,484.2,52.3,484.2z"></path> <path class="st12" d="M68.8,416c-0.5,0-0.9-0.4-0.9-0.9c0-0.3,0.2-0.6,0.4-0.8l15-8.6c0.4-0.3,1-0.2,1.3,0.3c0.3,0.4,0.2,1-0.3,1.3 c0,0-0.1,0-0.1,0.1l-15,8.6C69.1,416,69,416,68.8,416z"></path> <path class="st12" d="M146.8,369.9c-0.5,0-0.9-0.4-0.9-0.9c0-0.3,0.2-0.6,0.4-0.8l30.2-17.4c0.5-0.2,1,0,1.2,0.4 c0.2,0.4,0.1,0.9-0.3,1.2l-30.1,17.4C147.2,369.9,147,369.9,146.8,369.9z"></path> <path class="st12" d="M124.2,483c-0.5,0-0.9-0.4-0.9-0.9c0-0.3,0.2-0.6,0.4-0.8l30.1-17.4c0.4-0.3,1-0.2,1.3,0.3 c0.3,0.4,0.2,1-0.3,1.3c0,0-0.1,0-0.1,0.1l-30.1,17.4C124.5,483,124.3,483,124.2,483z"></path> </svg> 