<?xml version="1.0" encoding="utf-8"?>
<!-- Generator: Adobe Illustrator 18.0.0, SVG Export Plug-In . SVG Version: 6.00 Build 0)  -->
<!DOCTYPE svg PUBLIC "-//W3C//DTD SVG 1.1//EN" "http://www.w3.org/Graphics/SVG/1.1/DTD/svg11.dtd">
<svg version="1.1" xmlns="http://www.w3.org/2000/svg" xmlns:xlink="http://www.w3.org/1999/xlink" x="0px" y="0px"
	 viewBox="0 0 16 16" enable-background="new 0 0 16 16" xml:space="preserve">
<g id="Layer_1">
</g>
<g id="Layer_101">
</g>
<g id="Layer_100">
</g>
<g id="Layer_99">
</g>
<g id="Layer_98">
</g>
<g id="Layer_97">
</g>
<g id="Layer_96">
</g>
<g id="Layer_95">
</g>
<g id="Layer_94">
</g>
<g id="Layer_93">
</g>
<g id="Layer_92">
</g>
<g id="Layer_91">
</g>
<g id="Layer_90">
</g>
<g id="Layer_89">
</g>
<g id="Layer_88">
</g>
<g id="Layer_87">
</g>
<g id="Layer_86">
</g>
<g id="Layer_85">
</g>
<g id="Layer_84">
</g>
<g id="Layer_83">
</g>
<g id="Layer_82">
</g>
<g id="Layer_81">
</g>
<g id="Layer_80">
</g>
<g id="Layer_79">
</g>
<g id="Layer_78">
</g>
<g id="Layer_77">
</g>
<g id="Layer_76">
</g>
<g id="Layer_75">
</g>
<g id="Layer_74">
</g>
<g id="Layer_73">
</g>
<g id="Layer_72">
</g>
<g id="Layer_71">
</g>
<g id="Layer_70">
</g>
<g id="Layer_69">
</g>
<g id="Layer_68">
</g>
<g id="Layer_67">
</g>
<g id="Layer_66">
</g>
<g id="Layer_65">
</g>
<g id="Layer_64">
</g>
<g id="Layer_63">
</g>
<g id="Layer_62">
</g>
<g id="Layer_61">
</g>
<g id="Layer_60">
</g>
<g id="Layer_59">
</g>
<g id="Layer_58">
</g>
<g id="Layer_57">
</g>
<g id="Layer_56">
</g>
<g id="Layer_55">
</g>
<g id="Layer_54">
</g>
<g id="Layer_53">
</g>
<g id="Layer_52">
</g>
<g id="Layer_51">
</g>
<g id="Layer_50">
</g>
<g id="Layer_49">
</g>
<g id="Layer_48">
</g>
<g id="Layer_47">
</g>
<g id="Layer_46">
</g>
<g id="Layer_45">
</g>
<g id="Layer_44">
</g>
<g id="Layer_43">
</g>
<g id="Layer_42">
</g>
<g id="Layer_41">
</g>
<g id="Layer_40">
</g>
<g id="Layer_39">
</g>
<g id="Layer_38">
	<g id="XMLID_1807_">
		<path fill="#3F3F3F" d="M11,1L11,1c-0.552,0-1,0.448-1,1v1h2V2C12,1.448,11.552,1,11,1z"/>
	</g>
	<g id="XMLID_1805_">
		<path fill="#3F3F3F" d="M4,1L4,1C3.448,1,3,1.448,3,2v1h2V2C5,1.448,4.552,1,4,1z"/>
	</g>
	<g id="XMLID_1755_">
		<path fill="#3F3F3F" d="M14,2h-1v2H9V2H6v2H2V2H1C0.448,2,0,2.448,0,3v1v11c0,0.552,0.448,1,1,1h13c0.552,0,1-0.448,1-1V5V4V3
			C15,2.448,14.552,2,14,2z M4,14H2v-2h2V14z M4,11H2V9h2V11z M4,8H2V6h2V8z M7,11H5V9h2V11z M7,8H5V6h2V8z M10,11H8V9h2V11z M10,8
			H8V6h2V8z M13,11h-2V9h2V11z M13,8h-2V6h2V8z"/>
	</g>
</g>
<g id="Layer_37">
</g>
<g id="Layer_36">
</g>
<g id="Layer_35">
</g>
<g id="Layer_34">
</g>
<g id="Layer_33">
</g>
<g id="Layer_32">
</g>
<g id="Layer_31">
</g>
<g id="Layer_30">
</g>
<g id="Layer_29">
</g>
<g id="Layer_28">
</g>
<g id="Layer_27">
</g>
<g id="Layer_26">
</g>
<g id="Layer_25">
</g>
<g id="Layer_24">
</g>
<g id="Layer_23">
</g>
<g id="Layer_22">
</g>
<g id="Layer_21">
</g>
<g id="Layer_20">
</g>
<g id="Layer_19">
</g>
<g id="Layer_18">
</g>
<g id="Layer_17">
</g>
<g id="Layer_16">
</g>
<g id="Layer_15">
</g>
<g id="Layer_14">
</g>
<g id="Layer_13">
</g>
<g id="Layer_12">
</g>
<g id="Layer_11">
</g>
<g id="Layer_10">
</g>
<g id="Layer_9">
</g>
<g id="Layer_8">
</g>
<g id="Layer_7">
</g>
<g id="Layer_6">
</g>
<g id="Layer_5">
</g>
<g id="Layer_4">
</g>
<g id="Layer_3">
</g>
<g id="Layer_2">
</g>
</svg>
