<?xml version="1.0" encoding="utf-8"?>
<!-- Generator: Adobe Illustrator 18.0.0, SVG Export Plug-In . SVG Version: 6.00 Build 0)  -->
<!DOCTYPE svg PUBLIC "-//W3C//DTD SVG 1.1//EN" "http://www.w3.org/Graphics/SVG/1.1/DTD/svg11.dtd">
<svg version="1.1" xmlns="http://www.w3.org/2000/svg" xmlns:xlink="http://www.w3.org/1999/xlink" x="0px" y="0px"
	 viewBox="0 0 16 16" enable-background="new 0 0 16 16" xml:space="preserve">
<g id="Layer_1">
</g>
<g id="Layer_101">
</g>
<g id="Layer_100">
</g>
<g id="Layer_99">
</g>
<g id="Layer_98">
</g>
<g id="Layer_97">
</g>
<g id="Layer_96">
</g>
<g id="Layer_95">
</g>
<g id="Layer_94">
</g>
<g id="Layer_93">
</g>
<g id="Layer_92">
</g>
<g id="Layer_91">
</g>
<g id="Layer_90">
</g>
<g id="Layer_89">
</g>
<g id="Layer_88">
</g>
<g id="Layer_87">
</g>
<g id="Layer_86">
</g>
<g id="Layer_85">
</g>
<g id="Layer_84">
</g>
<g id="Layer_83">
</g>
<g id="Layer_82">
</g>
<g id="Layer_81">
</g>
<g id="Layer_80">
</g>
<g id="Layer_79">
</g>
<g id="Layer_78">
</g>
<g id="Layer_77">
</g>
<g id="Layer_76">
</g>
<g id="Layer_75">
</g>
<g id="Layer_74">
</g>
<g id="Layer_73">
</g>
<g id="Layer_72">
</g>
<g id="Layer_71">
</g>
<g id="Layer_70">
</g>
<g id="Layer_69">
</g>
<g id="Layer_68">
</g>
<g id="Layer_67">
</g>
<g id="Layer_66">
</g>
<g id="Layer_65">
</g>
<g id="Layer_64">
</g>
<g id="Layer_63">
	<g id="XMLID_2249_">
		<path fill="#3F3F3F" d="M15.562,6.945l-1.699-0.212c-0.154-0.717-0.438-1.384-0.823-1.98l1.053-1.354
			c0.155-0.199,0.138-0.482-0.041-0.66l-0.79-0.79c-0.178-0.178-0.461-0.196-0.66-0.041L11.248,2.96
			c-0.597-0.385-1.265-0.669-1.98-0.823L9.055,0.438C9.023,0.188,8.81,0,8.559,0H7.441C7.189,0,6.977,0.188,6.945,0.438L6.732,2.137
			C6.017,2.291,5.349,2.575,4.752,2.96L3.398,1.907C3.199,1.752,2.916,1.77,2.738,1.948l-0.79,0.79
			C1.769,2.917,1.752,3.2,1.907,3.398L2.96,4.752c-0.386,0.596-0.669,1.264-0.823,1.98L0.438,6.945C0.187,6.977,0,7.189,0,7.441
			v1.117c0,0.252,0.187,0.465,0.438,0.496l1.698,0.212c0.154,0.717,0.438,1.384,0.823,1.981l-1.053,1.354
			c-0.155,0.199-0.138,0.482,0.041,0.661l0.79,0.79c0.178,0.178,0.461,0.196,0.66,0.041l1.354-1.053
			c0.597,0.385,1.265,0.669,1.98,0.823l0.213,1.699C6.977,15.812,7.189,16,7.441,16h1.117c0.252,0,0.465-0.188,0.496-0.438
			l0.213-1.699c0.716-0.154,1.384-0.438,1.98-0.823l1.354,1.053c0.199,0.155,0.482,0.137,0.66-0.041l0.79-0.79
			c0.179-0.178,0.196-0.461,0.041-0.661l-1.053-1.354c0.386-0.596,0.669-1.264,0.823-1.981l1.699-0.212
			C15.812,9.023,16,8.811,16,8.559V7.441C16,7.189,15.812,6.977,15.562,6.945z M8,10c-1.105,0-2-0.896-2-2s0.895-2,2-2
			c1.104,0,2,0.896,2,2S9.104,10,8,10z"/>
	</g>
</g>
<g id="Layer_62">
</g>
<g id="Layer_61">
</g>
<g id="Layer_60">
</g>
<g id="Layer_59">
</g>
<g id="Layer_58">
</g>
<g id="Layer_57">
</g>
<g id="Layer_56">
</g>
<g id="Layer_55">
</g>
<g id="Layer_54">
</g>
<g id="Layer_53">
</g>
<g id="Layer_52">
</g>
<g id="Layer_51">
</g>
<g id="Layer_50">
</g>
<g id="Layer_49">
</g>
<g id="Layer_48">
</g>
<g id="Layer_47">
</g>
<g id="Layer_46">
</g>
<g id="Layer_45">
</g>
<g id="Layer_44">
</g>
<g id="Layer_43">
</g>
<g id="Layer_42">
</g>
<g id="Layer_41">
</g>
<g id="Layer_40">
</g>
<g id="Layer_39">
</g>
<g id="Layer_38">
</g>
<g id="Layer_37">
</g>
<g id="Layer_36">
</g>
<g id="Layer_35">
</g>
<g id="Layer_34">
</g>
<g id="Layer_33">
</g>
<g id="Layer_32">
</g>
<g id="Layer_31">
</g>
<g id="Layer_30">
</g>
<g id="Layer_29">
</g>
<g id="Layer_28">
</g>
<g id="Layer_27">
</g>
<g id="Layer_26">
</g>
<g id="Layer_25">
</g>
<g id="Layer_24">
</g>
<g id="Layer_23">
</g>
<g id="Layer_22">
</g>
<g id="Layer_21">
</g>
<g id="Layer_20">
</g>
<g id="Layer_19">
</g>
<g id="Layer_18">
</g>
<g id="Layer_17">
</g>
<g id="Layer_16">
</g>
<g id="Layer_15">
</g>
<g id="Layer_14">
</g>
<g id="Layer_13">
</g>
<g id="Layer_12">
</g>
<g id="Layer_11">
</g>
<g id="Layer_10">
</g>
<g id="Layer_9">
</g>
<g id="Layer_8">
</g>
<g id="Layer_7">
</g>
<g id="Layer_6">
</g>
<g id="Layer_5">
</g>
<g id="Layer_4">
</g>
<g id="Layer_3">
</g>
<g id="Layer_2">
</g>
</svg>
