<!-- <?xml version="1.0" encoding="utf-8"?>
 Generator: Adobe Illustrator 18.0.0, SVG Export Plug-In . SVG Version: 6.00 Build 0)
<!DOCTYPE svg PUBLIC "-//W3C//DTD SVG 1.1//EN" "http://www.w3.org/Graphics/SVG/1.1/DTD/svg11.dtd"> -->
<svg version="1.1" xmlns="http://www.w3.org/2000/svg" xmlns:xlink="http://www.w3.org/1999/xlink" x="0px" y="0px"
	 viewBox="0 0 16 16" enable-background="new 0 0 16 16" xml:space="preserve">
<g id="Layer_1">
</g>
<g id="Layer_101">
</g>
<g id="Layer_100">
</g>
<g id="Layer_99">
</g>
<g id="Layer_98">
</g>
<g id="Layer_97">
</g>
<g id="Layer_96">
</g>
<g id="Layer_95">
</g>
<g id="Layer_94">
</g>
<g id="Layer_93">
</g>
<g id="Layer_92">
</g>
<g id="Layer_91">
</g>
<g id="Layer_90">
</g>
<g id="Layer_89">
</g>
<g id="Layer_88">
</g>
<g id="Layer_87">
</g>
<g id="Layer_86">
</g>
<g id="Layer_85">
</g>
<g id="Layer_84">
</g>
<g id="Layer_83">
</g>
<g id="Layer_82">
</g>
<g id="Layer_81">
</g>
<g id="Layer_80">
</g>
<g id="Layer_79">
</g>
<g id="Layer_78">
</g>
<g id="Layer_77">
</g>
<g id="Layer_76">
</g>
<g id="Layer_75">
</g>
<g id="Layer_74">
</g>
<g id="Layer_73">
</g>
<g id="Layer_72">
</g>
<g id="Layer_71">
</g>
<g id="Layer_70">
</g>
<g id="Layer_69">
</g>
<g id="Layer_68">
</g>
<g id="Layer_67">
</g>
<g id="Layer_66">
</g>
<g id="Layer_65">
</g>
<g id="Layer_64">
</g>
<g id="Layer_63">
</g>
<g id="Layer_62">
</g>
<g id="Layer_61">
</g>
<g id="Layer_60">
</g>
<g id="Layer_59">
</g>
<g id="Layer_58">
</g>
<g id="Layer_57">
</g>
<g id="Layer_56">
</g>
<g id="Layer_55">
</g>
<g id="Layer_54">
</g>
<g id="Layer_53">
	<g id="XMLID_2211_">
		<path fill="#3F3F3F" d="M15,6h-1.45c-0.088,0-0.194-0.441-0.319-0.69l1.027-0.99c0.159-0.159,0.249-0.357,0.249-0.583
			c0-0.225-0.09-0.432-0.249-0.591l-1.414-1.409c-0.166-0.166-0.384-0.247-0.602-0.247c-0.217,0-0.435,0.084-0.601,0.25L10.69,2.769
			C10.441,2.644,10,2.538,10,2.45V1c0-0.47-0.53-1-1-1H7C6.53,0,6,0.53,6,1v1.45c0,0.088-0.441,0.194-0.69,0.319l-0.99-1.027
			C4.155,1.576,3.956,1.493,3.739,1.493c-0.218,0-0.426,0.083-0.592,0.249L1.737,3.156c-0.159,0.159-0.247,0.376-0.247,0.6
			c0,0.226,0.091,0.442,0.25,0.602L2.769,5.31C2.644,5.559,2.538,6,2.45,6H1C0.53,6,0,6.53,0,7v2c0,0.47,0.53,1,1,1h1.45
			c0.088,0,0.194,0.441,0.319,0.689l-1.027,0.99c-0.332,0.332-0.332,0.851,0,1.183l1.414,1.405c0.166,0.166,0.384,0.244,0.602,0.244
			c0.217,0,0.435-0.085,0.601-0.251l0.952-1.029C5.559,13.357,6,13.462,6,13.55V15c0,0.47,0.53,1,1,1h2c0.47,0,1-0.53,1-1v-1.45
			c0-0.088,0.441-0.194,0.69-0.319l0.99,1.027c0.166,0.166,0.365,0.249,0.582,0.249c0.218,0,0.426-0.083,0.592-0.249l1.409-1.414
			c0.332-0.332,0.33-0.87-0.002-1.202l-1.029-0.952C13.357,10.441,13.462,10,13.55,10H15c0.47,0,1-0.53,1-1V7C16,6.53,15.47,6,15,6z
			 M8,10.925c-1.613,0-2.925-1.312-2.925-2.925c0-1.613,1.312-2.925,2.925-2.925S10.925,6.387,10.925,8
			C10.925,9.613,9.613,10.925,8,10.925z"/>
	</g>
</g>
<g id="Layer_52">
</g>
<g id="Layer_51">
</g>
<g id="Layer_50">
</g>
<g id="Layer_49">
</g>
<g id="Layer_48">
</g>
<g id="Layer_47">
</g>
<g id="Layer_46">
</g>
<g id="Layer_45">
</g>
<g id="Layer_44">
</g>
<g id="Layer_43">
</g>
<g id="Layer_42">
</g>
<g id="Layer_41">
</g>
<g id="Layer_40">
</g>
<g id="Layer_39">
</g>
<g id="Layer_38">
</g>
<g id="Layer_37">
</g>
<g id="Layer_36">
</g>
<g id="Layer_35">
</g>
<g id="Layer_34">
</g>
<g id="Layer_33">
</g>
<g id="Layer_32">
</g>
<g id="Layer_31">
</g>
<g id="Layer_30">
</g>
<g id="Layer_29">
</g>
<g id="Layer_28">
</g>
<g id="Layer_27">
</g>
<g id="Layer_26">
</g>
<g id="Layer_25">
</g>
<g id="Layer_24">
</g>
<g id="Layer_23">
</g>
<g id="Layer_22">
</g>
<g id="Layer_21">
</g>
<g id="Layer_20">
</g>
<g id="Layer_19">
</g>
<g id="Layer_18">
</g>
<g id="Layer_17">
</g>
<g id="Layer_16">
</g>
<g id="Layer_15">
</g>
<g id="Layer_14">
</g>
<g id="Layer_13">
</g>
<g id="Layer_12">
</g>
<g id="Layer_11">
</g>
<g id="Layer_10">
</g>
<g id="Layer_9">
</g>
<g id="Layer_8">
</g>
<g id="Layer_7">
</g>
<g id="Layer_6">
</g>
<g id="Layer_5">
</g>
<g id="Layer_4">
</g>
<g id="Layer_3">
</g>
<g id="Layer_2">
</g>
</svg>
